<svg width="1024" height="1024" viewBox="0 0 1024 1024" fill="none" xmlns="http://www.w3.org/2000/svg">
  <defs>
    <linearGradient id="bg2" x1="118" y1="70" x2="924" y2="942" gradientUnits="userSpaceOnUse">
      <stop stop-color="#C4DDEA"/>
      <stop offset="0.5" stop-color="#8FB2C8"/>
      <stop offset="1" stop-color="#132F42"/>
    </linearGradient>
    <linearGradient id="glass2" x1="222" y1="180" x2="798" y2="860" gradientUnits="userSpaceOnUse">
      <stop stop-color="#F8FCFF" stop-opacity="0.92"/>
      <stop offset="1" stop-color="#9DBAD0" stop-opacity="0.42"/>
    </linearGradient>
    <linearGradient id="track2" x1="250" y1="510" x2="770" y2="610" gradientUnits="userSpaceOnUse">
      <stop stop-color="#24BDD9"/>
      <stop offset="1" stop-color="#0B7CAB"/>
    </linearGradient>
    <linearGradient id="knob2" x1="590" y1="390" x2="790" y2="634" gradientUnits="userSpaceOnUse">
      <stop stop-color="#F1A43E"/>
      <stop offset="1" stop-color="#DF7D21"/>
    </linearGradient>
    <filter id="shadow2" x="124" y="96" width="782" height="838" filterUnits="userSpaceOnUse" color-interpolation-filters="sRGB">
      <feFlood flood-opacity="0" result="BackgroundImageFix"/>
      <feColorMatrix in="SourceAlpha" type="matrix" values="0 0 0 0 0 0 0 0 0 0 0 0 0 0 0 0 0 0 127 0" result="hardAlpha"/>
      <feOffset dy="26"/>
      <feGaussianBlur stdDeviation="28"/>
      <feColorMatrix type="matrix" values="0 0 0 0 0.07 0 0 0 0 0.12 0 0 0 0 0.17 0 0 0 0.2 0"/>
      <feBlend mode="normal" in2="BackgroundImageFix" result="effect1_dropShadow_2_1"/>
      <feBlend mode="normal" in="SourceGraphic" in2="effect1_dropShadow_2_1" result="shape"/>
    </filter>
  </defs>
  <rect width="1024" height="1024" rx="224" fill="url(#bg2)"/>
  <g opacity="0.38">
    <path d="M0 138L138 0H0V138Z" fill="white"/>
    <path d="M1024 828L828 1024H1024V828Z" fill="#0B2230"/>
  </g>
  <g filter="url(#shadow2)">
    <circle cx="512" cy="500" r="294" fill="url(#glass2)"/>
    <circle cx="512" cy="500" r="288" stroke="white" stroke-opacity="0.26" stroke-width="12"/>
    <g opacity="0.34" stroke="#0C425D" stroke-width="8">
      <ellipse cx="512" cy="500" rx="182" ry="294"/>
      <ellipse cx="512" cy="500" rx="96" ry="294"/>
      <path d="M218 500H806"/>
      <path d="M264 376C337 417 425 440 512 440C599 440 687 417 760 376"/>
      <path d="M264 624C337 583 425 560 512 560C599 560 687 583 760 624"/>
    </g>
    <rect x="250" y="516" width="524" height="74" rx="37" fill="url(#track2)"/>
    <rect x="250" y="516" width="524" height="74" rx="37" stroke="white" stroke-opacity="0.18" stroke-width="6"/>
    <circle cx="678" cy="553" r="106" fill="url(#knob2)"/>
    <circle cx="678" cy="553" r="100" stroke="white" stroke-opacity="0.2" stroke-width="8"/>
    <circle cx="678" cy="553" r="56" fill="#1B2D52"/>
    <path d="M678 553V521" stroke="white" stroke-width="12" stroke-linecap="round"/>
    <path d="M678 553L710 572" stroke="white" stroke-width="10" stroke-linecap="round"/>
    <path d="M350 420L512 500" stroke="#1B2D52" stroke-width="28" stroke-linecap="round"/>
    <path d="M512 500V680" stroke="#1B2D52" stroke-width="34" stroke-linecap="round"/>
    <circle cx="512" cy="500" r="22" fill="#1B2D52"/>
    <circle cx="512" cy="500" r="8" fill="#24BDD9"/>
    <path d="M264 256C338 206 423 181 512 181C619 181 718 217 798 282" stroke="#F0A03A" stroke-width="18" stroke-linecap="round" opacity="0.94"/>
  </g>
</svg>
