<svg width="1024" height="1024" viewBox="0 0 1024 1024" fill="none" xmlns="http://www.w3.org/2000/svg">
  <defs>
    <linearGradient id="bg1" x1="108" y1="88" x2="916" y2="940" gradientUnits="userSpaceOnUse">
      <stop stop-color="#BCD7EA"/>
      <stop offset="0.55" stop-color="#8FB1C9"/>
      <stop offset="1" stop-color="#173548"/>
    </linearGradient>
    <linearGradient id="glass1" x1="282" y1="208" x2="734" y2="798" gradientUnits="userSpaceOnUse">
      <stop stop-color="#F8FCFF" stop-opacity="0.88"/>
      <stop offset="1" stop-color="#A8C3D7" stop-opacity="0.52"/>
    </linearGradient>
    <linearGradient id="smallDial" x1="680" y1="234" x2="826" y2="384" gradientUnits="userSpaceOnUse">
      <stop stop-color="#77D5DE"/>
      <stop offset="1" stop-color="#2DA7BA"/>
    </linearGradient>
    <filter id="shadow1" x="72" y="84" width="880" height="884" filterUnits="userSpaceOnUse" color-interpolation-filters="sRGB">
      <feFlood flood-opacity="0" result="BackgroundImageFix"/>
      <feColorMatrix in="SourceAlpha" type="matrix" values="0 0 0 0 0 0 0 0 0 0 0 0 0 0 0 0 0 0 127 0" result="hardAlpha"/>
      <feOffset dy="28"/>
      <feGaussianBlur stdDeviation="34"/>
      <feColorMatrix type="matrix" values="0 0 0 0 0.07 0 0 0 0 0.12 0 0 0 0 0.17 0 0 0 0.22 0"/>
      <feBlend mode="normal" in2="BackgroundImageFix" result="effect1_dropShadow_1_1"/>
      <feBlend mode="normal" in="SourceGraphic" in2="effect1_dropShadow_1_1" result="shape"/>
    </filter>
  </defs>
  <rect width="1024" height="1024" rx="224" fill="url(#bg1)"/>
  <g opacity="0.42">
    <path d="M0 162L162 0H0V162Z" fill="white"/>
    <path d="M1024 794L794 1024H1024V794Z" fill="#0E2532"/>
  </g>
  <g filter="url(#shadow1)">
    <circle cx="512" cy="548" r="340" fill="url(#glass1)"/>
    <circle cx="512" cy="548" r="334" stroke="white" stroke-opacity="0.32" stroke-width="12"/>
    <path d="M166 414C212 286 334 196 476 182C607 170 736 218 817 316" stroke="#F0A03A" stroke-width="28" stroke-linecap="round"/>
    <path d="M208 695C266 793 372 858 489 864C616 871 739 808 806 703" stroke="#26C0DB" stroke-width="28" stroke-linecap="round"/>
    <path d="M512 548L512 716" stroke="#182B52" stroke-width="42" stroke-linecap="round"/>
    <path d="M512 548L748 676" stroke="#182B52" stroke-width="38" stroke-linecap="round"/>
    <path d="M512 548L371 383" stroke="#F0A03A" stroke-width="18" stroke-linecap="round"/>
    <circle cx="512" cy="548" r="31" fill="#182B52"/>
    <circle cx="512" cy="548" r="11" fill="#F0A03A"/>
    <g opacity="0.22" stroke="white" stroke-width="10" stroke-linecap="round">
      <path d="M512 260V316"/>
      <path d="M668 302L639 352"/>
      <path d="M764 442L710 454"/>
      <path d="M744 612L692 590"/>
      <path d="M638 745L609 694"/>
      <path d="M512 792V735"/>
      <path d="M386 745L415 694"/>
      <path d="M280 612L332 590"/>
      <path d="M260 442L314 454"/>
      <path d="M356 302L385 352"/>
    </g>
    <circle cx="740" cy="354" r="94" fill="url(#smallDial)"/>
    <circle cx="740" cy="354" r="89" stroke="white" stroke-opacity="0.28" stroke-width="10"/>
    <path d="M740 354V304" stroke="white" stroke-width="18" stroke-linecap="round"/>
    <path d="M740 354L787 382" stroke="white" stroke-width="16" stroke-linecap="round"/>
  </g>
</svg>
